<?xml version="1.0" encoding="utf-8"?>
<!-- Generator: Adobe Illustrator 23.0.0, SVG Export Plug-In . SVG Version: 6.00 Build 0)  -->
<svg version="1.1" id="Layer_1" xmlns="http://www.w3.org/2000/svg" xmlns:xlink="http://www.w3.org/1999/xlink" x="0px" y="0px"
	 viewBox="0 0 512 512" style="enable-background:new 0 0 512 512;" xml:space="preserve">
<style type="text/css">
	.st0{fill:#F2351C;stroke:#F2351C;stroke-width:11;stroke-miterlimit:10;}
	.st1{fill:#F2351C;stroke:#F2351C;stroke-width:25;stroke-miterlimit:10;}
	.st2{fill:#F2351C;stroke:#F2351C;stroke-width:17;stroke-miterlimit:10;}
</style>
<path class="st0" d="M201.6,176.3H47.9C28.1,176.3,12,160.5,12,141V50.3C12,30.8,28.1,15,47.9,15h153.8c19.8,0,35.9,15.8,35.9,35.3
	V141C237.5,160.5,221.4,176.3,201.6,176.3z M47.9,45.2c-2.8,0-5.1,2.3-5.1,5V141c0,2.8,2.3,5,5.1,5h153.8c2.8,0,5.1-2.3,5.1-5V50.3
	c0-2.8-2.3-5-5.1-5H47.9z"/>
<path class="st1" d="M201.6,498.9H47.9c-19.8,0-35.9-15.8-35.9-35.3V251.9c0-19.5,16.1-35.3,35.9-35.3h153.8
	c19.8,0,35.9,15.8,35.9,35.3v211.7C237.5,483.1,221.4,498.9,201.6,498.9z M47.9,246.9c-2.8,0-5.1,2.3-5.1,5v211.7c0,2.8,2.3,5,5.1,5
	h153.8c2.8,0,5.1-2.3,5.1-5V251.9c0-2.8-2.3-5-5.1-5H47.9z"/>
<path class="st2" d="M468.1,498.9H314.4c-19.8,0-35.9-15.8-35.9-35.3v-90.7c0-19.5,16.1-35.3,35.9-35.3h153.8
	c19.8,0,35.9,15.8,35.9,35.3v90.7C504,483.1,487.9,498.9,468.1,498.9z M314.4,367.8c-2.8,0-5.1,2.3-5.1,5v90.7c0,2.8,2.3,5,5.1,5
	h153.8c2.8,0,5.1-2.3,5.1-5v-90.7c0-2.8-2.3-5-5.1-5H314.4z"/>
<path class="st1" d="M464.2,297.3H310.4c-19.8,0-35.9-15.8-35.9-35.3V50.3c0-19.5,16.1-35.3,35.9-35.3h153.8
	c19.8,0,35.9,15.8,35.9,35.3V262C500,281.4,483.9,297.3,464.2,297.3z M310.4,45.2c-2.8,0-5.1,2.3-5.1,5V262c0,2.8,2.3,5,5.1,5h153.8
	c2.8,0,5.1-2.3,5.1-5V50.3c0-2.8-2.3-5-5.1-5H310.4z"/>
</svg>
