<?xml version="1.0"?>
<svg xmlns="http://www.w3.org/2000/svg" xmlns:xlink="http://www.w3.org/1999/xlink" xmlns:svgjs="http://svgjs.com/svgjs" version="1.1" width="512" height="512" x="0" y="0" viewBox="0 0 511.99998 511" style="enable-background:new 0 0 512 512" xml:space="preserve" class=""><g><path xmlns="http://www.w3.org/2000/svg" d="m481.9375 394.390625h-91.972656v117.96875h29.992187v-87.976563h61.980469v87.976563h29.992188v-236.933594h-29.992188zm0 0" fill="#e74c3c" data-original="#000000" style="" class=""/><path xmlns="http://www.w3.org/2000/svg" d="m30.0625 275.425781h-29.9921875v236.933594h29.9921875v-87.976563h61.980469v87.976563h29.992187v-117.96875h-91.972656zm0 0" fill="#e74c3c" data-original="#000000" style="" class=""/><path xmlns="http://www.w3.org/2000/svg" d="m270.996094 26.273438v-25.773438h-29.992188v25.773438c4.988282-.25 9.988282-.378907 14.996094-.378907s10.007812.128907 14.996094.378907zm0 0" fill="#e74c3c" data-original="#000000" style="" class=""/><path xmlns="http://www.w3.org/2000/svg" d="m146.480469 252.230469c.808593-17.574219 3.007812-41.597657 8.546875-68 6.507812-31.070313 16.316406-59.035157 29.152344-83.109375 8.308593-15.605469 17.90625-29.582032 28.703124-41.855469-99.234374 15.703125-181.03125 84.90625-212.882812 179.910156 18.695312-14.21875 41.796875-22.285156 66.082031-22.285156 30.929688 0 59.972657 13.105469 80.398438 35.339844zm0 0" fill="#e74c3c" data-original="#000000" style="" class=""/><path xmlns="http://www.w3.org/2000/svg" d="m356.972656 184.230469c5.539063 26.402343 7.738282 50.425781 8.546875 68 20.425781-22.234375 49.46875-35.339844 80.398438-35.339844 24.285156 0 47.386719 8.066406 66.082031 22.285156-31.851562-95.003906-113.648438-164.207031-212.882812-179.910156 10.796874 12.273437 20.394531 26.25 28.703124 41.855469 12.835938 24.074218 22.644532 52.039062 29.152344 83.109375zm0 0" fill="#e74c3c" data-original="#000000" style="" class=""/><path xmlns="http://www.w3.org/2000/svg" d="m270.996094 217.929688c24.722656 3.417968 47.425781 15.226562 64.414062 33.230468-.851562-16.246094-2.972656-37.976562-7.941406-61.472656-8.695312-41.128906-28.140625-95.921875-71.46875-130.203125-63.582031 50.175781-76.867188 144.269531-79.378906 191.648437 16.984375-17.988281 39.667968-29.785156 64.382812-33.203124v101.3125h-101.972656v76h101.972656v87.226562h-36.738281v29.992188h103.46875v-29.992188h-36.738281v-87.226562h101.972656v-76h-101.972656zm0 0" fill="#e74c3c" data-original="#000000" style="" class=""/></g></svg>
