<?xml version="1.0" encoding="utf-8"?>
<!-- Generator: Adobe Illustrator 23.0.0, SVG Export Plug-In . SVG Version: 6.00 Build 0)  -->
<svg version="1.1" id="Layer_1" xmlns:svgjs="http://svgjs.com/svgjs"
	 xmlns="http://www.w3.org/2000/svg" xmlns:xlink="http://www.w3.org/1999/xlink" x="0px" y="0px" viewBox="0 0 512 512"
	 style="enable-background:new 0 0 512 512;" xml:space="preserve">
<style type="text/css">
	.st0{fill:#E43A15;}
</style>
<g>
	<path class="st0" d="M506.1,254.2c-3.9,3.9-9,5.8-14.1,5.8c-5.1,0-10.3-2-14.2-5.9L462,238.2V316c0,11-9,20-20,20h-28
		c-11,0-20-9-20-20c0-11,9-20,20-20h8v-98.1L269.9,44.8c-7.5-6.4-18.5-6.4-25.9-0.1L90,198.4c0,0.2,0,0.4,0,0.6v97h9
		c11,0,20,9,20,20c0,11-9,20-20,20H70c-11,0-20-9-20-20v-77.7l-15.9,15.8c-7.8,7.8-20.5,7.8-28.3,0c-7.8-7.8-7.8-20.5,0-28.3
		L216.2,16c0.3-0.3,0.5-0.5,0.8-0.8c22.8-20.3,57.2-20.3,80,0.2c0.3,0.3,0.6,0.5,0.8,0.8l208.4,209.8
		C514,233.7,513.9,246.4,506.1,254.2z M442,376c-11,0-20,9-20,20v76h-8c-11,0-20,9-20,20s9,20,20,20h28c11,0,20-9,20-20v-96
		C462,385,453,376,442,376z M99,472h-9v-76c0-11-9-20-20-20c-11,0-20,9-20,20v96c0,11,9,20,20,20h29c11,0,20-9,20-20S110,472,99,472
		z M256,472c-11,0-20,9-20,20s9,20,20,20s20-9,20-20S267,472,256,472z M334,472c-11,0-20,9-20,20s9,20,20,20c11,0,20-9,20-20
		S345,472,334,472z M178,472c-11,0-20,9-20,20s9,20,20,20c11,0,20-9,20-20S189,472,178,472z M256,296c-11,0-20,9-20,20
		c0,11,9,20,20,20s20-9,20-20C276,305,267,296,256,296z M334,296c-11,0-20,9-20,20c0,11,9,20,20,20c11,0,20-9,20-20
		C354,305,345,296,334,296z M178,296c-11,0-20,9-20,20c0,11,9,20,20,20c11,0,20-9,20-20C198,305,189,296,178,296z"/>
</g>
</svg>
