<?xml version="1.0"?>
<svg xmlns="http://www.w3.org/2000/svg" xmlns:xlink="http://www.w3.org/1999/xlink" xmlns:svgjs="http://svgjs.com/svgjs" version="1.1" width="512" height="512" x="0" y="0" viewBox="0 0 557.821 557.821" style="enable-background:new 0 0 512 512" xml:space="preserve" class=""><g><g xmlns="http://www.w3.org/2000/svg"><g><g><path d="m138.366 220.35v33.774h123.113v-120.709c0-23.892-19.368-43.259-43.259-43.259h-109.59c-23.892 0-43.259 19.368-43.259 43.259v21.565h7.626c36.044.001 65.369 29.325 65.369 65.37z" fill="#e74c3c" data-original="#000000" style="" class=""/></g><g><path d="m525.136 187.665h-40.311c-18.022 0-32.685 14.662-32.685 32.685v66.459h-346.459v-66.459c0-18.022-14.662-32.685-32.685-32.685h-40.311c-18.023 0-32.685 14.663-32.685 32.685v149.261c0 18.022 14.662 32.685 32.685 32.685h492.451c18.022 0 32.685-14.662 32.685-32.685v-149.261c0-18.022-14.662-32.685-32.685-32.685z" fill="#e74c3c" data-original="#000000" style="" class=""/></g><g><path d="m419.455 220.35c0-36.045 29.325-65.37 65.37-65.37h7.626v-21.085c0-24.157-19.583-43.74-43.74-43.74h-110.808c-24.157 0-43.74 19.583-43.74 43.74v120.229h125.292z" fill="#e74c3c" data-original="#000000" style="" class=""/></g><g><path d="m438.666 456.019c2.073 6.913 8.436 11.647 15.653 11.647h54.475c9.025 0 16.342-7.317 16.342-16.342v-16.342h-92.781z" fill="#e74c3c" data-original="#000000" style="" class=""/></g><g><path d="m32.685 451.323c0 9.025 7.317 16.342 16.342 16.342h54.475c7.217 0 13.579-4.734 15.653-11.647l6.311-21.038h-92.781z" fill="#e74c3c" data-original="#000000" style="" class=""/></g></g></g></g></svg>
